<svg width="20" height="20" viewBox="0 0 20 20" fill="none" xmlns="http://www.w3.org/2000/svg">
<path d="M6.21067 19.2633C6.08533 19.6093 5.70133 19.7853 5.35667 19.6627C3.95467 19.1533 2.73333 18.2913 1.79133 17.1547L1.746 17.606C1.70867 17.9727 1.384 18.2353 1.01533 18.2027C0.649333 18.1653 0.382 17.8387 0.418667 17.472L0.611333 15.5653C0.629333 15.3893 0.716667 15.2273 0.854 15.1153C0.973333 15.018 1.122 14.9653 1.27467 14.9653L3.33267 15.1747C3.69867 15.2133 3.96533 15.5407 3.92733 15.9073C3.88933 16.274 3.56333 16.534 3.19533 16.502L2.99 16.4807C3.75733 17.342 4.71267 18.01 5.812 18.4087C6.158 18.5347 6.336 18.9173 6.21067 19.2633ZM14.188 1.59133C15.2867 1.99067 16.2427 2.658 17.01 3.51933L16.8047 3.498C16.4373 3.46533 16.1107 3.726 16.0727 4.09267C16.0347 4.45933 16.3007 4.78667 16.6673 4.82533L18.7253 5.03467C18.878 5.03467 19.0267 4.982 19.146 4.88467C19.2833 4.77267 19.3707 4.61067 19.3887 4.43467L19.5813 2.528C19.618 2.16133 19.3513 1.83467 18.9847 1.79733C18.616 1.764 18.2913 2.02733 18.254 2.394L18.2087 2.84533C17.2667 1.70867 16.0453 0.846667 14.6433 0.337333C14.298 0.214 13.9147 0.390667 13.7893 0.736667C13.664 1.08333 13.842 1.46533 14.188 1.59133ZM5.184 5.33333L5.43933 6.1C5.59067 6.55467 6.24333 7.23333 6.85067 7.768C7.308 7.306 7.68533 6.724 7.89333 6.1L8.14867 5.33333H5.184ZM12.916 14H13.7513L13.334 13.026L12.916 14ZM20 13.3333C20 17.0093 17.0093 20 13.3333 20C9.65733 20 6.66667 17.0093 6.66667 13.3333C2.99067 13.3333 0 10.3427 0 6.66667C0 2.99067 2.99067 0 6.66667 0C10.3427 0 13.3333 2.99067 13.3333 6.66667C17.0093 6.66667 20 9.65733 20 13.3333ZM10.6667 4.66667C10.6667 4.298 10.368 4 10 4H7.33333V3.33333C7.33333 2.96467 7.03467 2.66667 6.66667 2.66667C6.29867 2.66667 6 2.96467 6 3.33333V4H3.33333C2.96533 4 2.66667 4.298 2.66667 4.66667C2.66667 5.03533 2.96533 5.33333 3.33333 5.33333H3.77867L4.17467 6.522C4.386 7.15667 5.04067 7.924 5.728 8.562L4.47667 8.97933C4.12733 9.09533 3.93867 9.47267 4.05533 9.82267C4.14867 10.102 4.40867 10.2787 4.688 10.2787C4.75733 10.2787 4.82867 10.2673 4.89867 10.244L6.20533 9.80667C6.42467 9.71267 6.636 9.59467 6.842 9.466C7.104 9.64667 7.32867 9.776 7.478 9.82533L8.734 10.244C8.804 10.2673 8.87533 10.2787 8.94467 10.2787C9.224 10.2787 9.484 10.102 9.57733 9.82267C9.694 9.47333 9.50533 9.09533 9.156 8.97933L7.92733 8.57C8.472 7.98667 8.90533 7.28267 9.15867 6.522L9.55467 5.33333H10C10.368 5.33333 10.6667 5.03533 10.6667 4.66667ZM15.946 15.7373L13.946 11.0707C13.8413 10.8253 13.6 10.6667 13.3333 10.6667C13.0667 10.6667 12.8253 10.8253 12.7207 11.0707L10.7207 15.7373C10.5753 16.0753 10.7327 16.4673 11.0707 16.612C11.4093 16.758 11.8013 16.6007 11.946 16.262L12.344 15.3327H14.322L14.72 16.262C14.828 16.5153 15.074 16.666 15.3327 16.666C15.42 16.666 15.5093 16.6493 15.5953 16.612C15.9333 16.4667 16.0913 16.0747 15.946 15.7373Z" fill="#67A92A"/>
</svg>
