<svg width="20" height="20" viewBox="0 0 20 20" fill="none" xmlns="http://www.w3.org/2000/svg">
<mask id="mask0_152_807" style="mask-type:luminance" maskUnits="userSpaceOnUse" x="0" y="0" width="20" height="20">
<path d="M20 0H0V20H20V0Z" fill="white"/>
</mask>
<g mask="url(#mask0_152_807)">
<path fill-rule="evenodd" clip-rule="evenodd" d="M16.6291 3.37088C14.7986 1.54029 12.5888 0.625 10 0.625C7.41119 0.625 5.20146 1.54029 3.37088 3.37088C1.54029 5.20146 0.625 7.41119 0.625 10C0.625 11.3849 0.914737 12.7006 1.49421 13.9473C1.56696 14.1039 1.68438 14.2117 1.84649 14.2709C2.0086 14.3302 2.16791 14.3234 2.32441 14.2507C2.35991 14.2342 2.39356 14.2145 2.42537 14.1917C2.45718 14.1689 2.48658 14.1433 2.51357 14.1149C3.14206 13.455 3.97088 13.125 5 13.125C5.88468 13.125 6.63519 13.3818 7.25156 13.8954C7.83388 14.3807 8.125 14.9572 8.125 15.625C8.125 16.5039 7.66756 17.193 6.75262 17.6924C6.67987 17.7321 6.6175 17.7843 6.5655 17.8488C6.5135 17.9133 6.47581 17.9853 6.45244 18.0648C6.42906 18.1444 6.42181 18.2253 6.43069 18.3078C6.4395 18.3901 6.46381 18.4677 6.5035 18.5404C6.54025 18.6077 6.58769 18.6663 6.64594 18.7161C6.70419 18.7659 6.76944 18.8037 6.84156 18.8295C7.85812 19.1932 8.91094 19.375 10 19.375C12.5888 19.375 14.7986 18.4597 16.6291 16.6291C18.4597 14.7986 19.375 12.5888 19.375 10C19.375 7.41119 18.4597 5.20146 16.6291 3.37088ZM9.375 5C9.375 3.75 10 3.125 11.25 3.125C12.5 3.125 13.125 3.75 13.125 5C13.125 6.25 12.5 6.875 11.25 6.875C10 6.875 9.375 6.25 9.375 5ZM6.25 4.375C5 4.375 4.375 5 4.375 6.25C4.375 7.5 5 8.125 6.25 8.125C7.5 8.125 8.125 7.5 8.125 6.25C8.125 5 7.5 4.375 6.25 4.375ZM15 6.875C13.75 6.875 13.125 7.5 13.125 8.75C13.125 10 13.75 10.625 15 10.625C16.25 10.625 16.875 10 16.875 8.75C16.875 7.5 16.25 6.875 15 6.875ZM11.875 13.75C11.875 12.5 12.5 11.875 13.75 11.875C15 11.875 15.625 12.5 15.625 13.75C15.625 15 15 15.625 13.75 15.625C12.5 15.625 11.875 15 11.875 13.75Z" fill="#67A92A"/>
</g>
</svg>
