<svg width="18" height="23" viewBox="0 0 18 23" fill="none" xmlns="http://www.w3.org/2000/svg">
<path d="M15.007 9.41122V9.85387L15.4464 9.90754C16.6057 10.0492 17.5 11.0285 17.5 12.2041V20.1837C17.5 21.4564 16.4535 22.5 15.1579 22.5H2.84211C1.54652 22.5 0.5 21.4564 0.5 20.1837V12.2041C0.5 11.0284 1.39386 10.0492 2.55361 9.90754L2.993 9.85388V9.41122V6.44798C2.993 3.1728 5.68368 0.5 9 0.5C12.3163 0.5 15.007 3.1728 15.007 6.44798V9.41122ZM12.6649 9.88776H13.1649V9.38776V6.44798C13.1649 4.16514 11.2926 2.31633 9 2.31633C6.70743 2.31633 4.83511 4.16514 4.83511 6.44798V9.38776V9.88776H5.33511H12.6649ZM10.4474 16.4751C11.0276 16.0423 11.4127 15.356 11.4127 14.5689C11.4127 13.2417 10.3282 12.1735 9 12.1735C7.67185 12.1735 6.58726 13.2417 6.58726 14.5689C6.58726 15.3559 6.97198 16.0423 7.55263 16.4752V19.2449C7.55263 20.0435 8.20522 20.6837 9 20.6837C9.79478 20.6837 10.4474 20.0435 10.4474 19.2449V16.4751Z" fill="#67A92A" stroke="#67A92A"/>
</svg>
