<svg width="18" height="18" viewBox="0 0 18 18" fill="none" xmlns="http://www.w3.org/2000/svg">
<path d="M17.5758 14.6488L16.4581 16.2913C15.9795 17.0043 15.2768 17.5377 14.4591 17.8069C13.6422 18.0752 12.7584 18.0638 11.9489 17.7735C6.45742 15.8668 2.13968 11.5614 0.227078 6.0837C-0.0639647 5.27549 -0.075381 4.39409 0.193652 3.57859C0.463511 2.76305 0.998324 2.06054 1.71413 1.58327L3.69116 0.245728C4.0091 0.0302488 4.40124 -0.0478083 4.7779 0.0286251C5.15455 0.105056 5.48473 0.329467 5.69425 0.651457L7.49517 3.42987C7.92074 4.08603 7.73648 4.96255 7.08264 5.39349C6.57717 5.61059 6.18828 6.03015 6.01219 6.54971C5.83611 7.06928 5.88827 7.63845 6.1565 8.11654C7.06959 9.66061 8.36087 10.9484 9.90844 11.8591C10.3886 12.1266 10.9593 12.1787 11.4803 12.003C12.0004 11.8274 12.4219 11.4396 12.6396 10.9354C13.0717 10.2833 13.9505 10.0996 14.6084 10.524L17.3943 12.3201C18.0677 12.7543 18.2511 13.656 17.5761 14.6489L17.5758 14.6488ZM17.4454 7.74317C17.4438 5.84297 16.6856 4.02162 15.3387 2.67758C13.9911 1.33435 12.1649 0.578159 10.2596 0.576494C9.89922 0.576494 9.60736 0.867573 9.60736 1.22697C9.60736 1.58636 9.89922 1.87744 10.2596 1.87744C11.8184 1.87907 13.3136 2.49703 14.4166 3.59713C15.5188 4.69642 16.1393 6.18758 16.1409 7.7431C16.1458 8.09842 16.4368 8.38463 16.7931 8.38463C17.1502 8.38463 17.4405 8.09848 17.4454 7.74317ZM14.5462 7.74317C14.5454 6.60972 14.0929 5.5226 13.2891 4.7208C12.486 3.91908 11.3961 3.46864 10.2595 3.46702C9.89914 3.46702 9.60728 3.7581 9.60728 4.11749C9.60728 4.47689 9.89914 4.76797 10.2595 4.76797C11.9055 4.77041 13.24 6.10062 13.2417 7.74308C13.2466 8.0984 13.5377 8.38461 13.8939 8.38461C14.251 8.38461 14.5422 8.09848 14.5462 7.74317Z" fill="#67A92A"/>
</svg>
