<svg width="17" height="17" viewBox="0 0 17 17" fill="none" xmlns="http://www.w3.org/2000/svg">
<path d="M11.292 8.77437L11.292 8.77435L10.5458 9.50515L11.292 8.77437ZM11.292 8.77437L11.296 8.77044M11.292 8.77437L11.296 8.77044M11.296 8.77044C12.2068 7.85838 12.6082 6.59556 12.3988 5.31519L12.3987 5.31488C12.1375 3.72464 10.9094 2.4371 9.33613 2.10938L9.3351 2.10917C8.15085 1.86507 6.93779 2.15031 6.00746 2.90689L6.00743 2.90692C5.07978 3.66143 4.54636 4.78019 4.54636 5.97549V6.47549H5.04636H6.64011H7.14011V5.97549C7.14011 5.56422 7.32278 5.18033 7.64314 4.92031L7.64394 4.91966C7.96552 4.65753 8.37228 4.55777 8.80677 4.64858L8.80691 4.64861C9.32003 4.75572 9.75229 5.20614 9.83935 5.73483C9.91388 6.19037 9.77383 6.62271 9.46869 6.92937L8.73032 7.65241L8.72997 7.65276C7.7594 8.60506 7.20261 9.92835 7.20261 11.288V11.788H7.70261H9.29636H9.79636M11.296 8.77044L9.79636 11.788M9.79636 11.788V11.288M9.79636 11.788V11.288M9.79636 11.288C9.79636 10.6226 10.0703 9.97145 10.5456 9.50535L9.79636 11.288ZM6.93698 13.413C6.93698 14.2763 7.637 14.9755 8.49948 14.9755C9.36265 14.9755 10.062 14.2762 10.062 13.413C10.062 12.5505 9.36282 11.8505 8.49948 11.8505C7.63684 11.8505 6.93698 12.5504 6.93698 13.413ZM0.5 8.5C0.5 4.08149 4.08149 0.5 8.5 0.5C12.918 0.5 16.5 4.08151 16.5 8.5C16.5 12.918 12.918 16.5 8.5 16.5C4.08151 16.5 0.5 12.918 0.5 8.5Z" fill="#67A92A" stroke="#67A92A"/>
</svg>
