<svg width="18" height="18" viewBox="0 0 18 18" fill="none" xmlns="http://www.w3.org/2000/svg">
<path d="M0.649279 0.501454C0.237848 0.867874 0 1.39504 0 1.94788V16.0521C0 16.605 0.237848 17.1321 0.649279 17.4986C1.00928 17.8264 1.47214 18 1.9543 18C2.01858 18 2.0893 17.9936 2.16001 17.9871L11.9702 16.9521C12.9602 16.8493 13.7123 16.0136 13.7123 15.0171V13.2943C13.6866 13.3007 13.6545 13.3007 13.6288 13.3007C13.0566 13.3007 12.4845 13.0436 12.1052 12.555C11.7323 12.0793 11.6295 11.475 11.758 10.9286H4.89229C3.83158 10.9286 2.96371 10.0671 2.96371 8.99998C2.96371 7.93283 3.83158 7.0714 4.89229 7.0714H11.7451C11.6165 6.52498 11.7322 5.92067 12.1051 5.44497C12.5037 4.93068 13.108 4.67996 13.7122 4.70567V2.9828C13.7122 1.98636 12.9601 1.15066 11.9701 1.0478L2.15992 0.0128077C1.60706 -0.0514784 1.06071 0.128595 0.649279 0.501454Z" fill="#67A92A"/>
<path d="M13.1183 11.7645C13.2453 11.9268 13.4341 12.012 13.6253 12.012C13.7636 12.012 13.9034 11.9678 14.0207 11.8754L17.0558 9.50638C17.1844 9.38504 17.2873 9.23156 17.2961 9.04993C17.3162 8.83297 17.2182 8.63046 17.0558 8.49306L14.0207 6.12404C13.7411 5.90627 13.3377 5.95529 13.1183 6.23494C12.8997 6.51459 12.9496 6.91878 13.2292 7.13735L14.7922 8.35718H4.89457C4.53938 8.35718 4.25171 8.64485 4.25171 9.00004C4.25171 9.35523 4.53938 9.6429 4.89457 9.6429H14.793L13.2308 10.8627C12.9504 11.0805 12.9005 11.4849 13.1183 11.7645Z" fill="#67A92A"/>
</svg>
