<svg width="19" height="27" viewBox="0 0 19 27" fill="none" xmlns="http://www.w3.org/2000/svg">
<path d="M8.21588 11.1153H10.7854V14.8484H8.21588V11.1153Z" fill="#67A92A"/>
<path d="M9.5 0C4.26228 0 0 4.26197 0 9.5C0 17.1315 7.79644 25.1425 9.5 26.8014C11.2034 25.1438 19 17.1318 19 9.5C19 4.26228 14.738 0 9.5 0ZM16.3195 9.59159C16.2496 9.78072 16.0689 9.906 15.8677 9.906H14.4619V15.3306C14.4619 15.5968 14.2463 15.8125 13.98 15.8125H5.01972C4.75349 15.8125 4.53786 15.5968 4.53786 15.3306V9.906H3.13202C2.93085 9.906 2.75014 9.78071 2.68029 9.59159C2.61042 9.40246 2.66463 9.19044 2.81762 9.05912L9.18529 3.57808C9.36599 3.42268 9.63341 3.42268 9.81413 3.57808L16.1818 9.05912C16.3348 9.19043 16.389 9.40366 16.3191 9.59159H16.3195Z" fill="#67A92A"/>
<path d="M4.4306 8.94216H5.01969C5.28592 8.94216 5.50155 9.1578 5.50155 9.42403V14.8486H7.25192V10.6335C7.25192 10.3673 7.46756 10.1517 7.73378 10.1517H11.267C11.5333 10.1517 11.7489 10.3673 11.7489 10.6335V14.8486H13.4993V9.42403C13.4993 9.1578 13.7149 8.94216 13.9811 8.94216H14.5702L9.50087 4.57904L4.43153 8.94216H4.4306Z" fill="#67A92A"/>
</svg>
