<svg width="19" height="19" viewBox="0 0 19 19" fill="none" xmlns="http://www.w3.org/2000/svg">
<path d="M13.5784 2.7312L11.3175 0.473755V2.7312H13.5784Z" fill="#67A92A"/>
<path d="M18.2523 7.95356H10.3463L10.0654 6.87054C10.0247 6.72162 9.88937 6.6167 9.73708 6.6167H8.14978C7.96364 6.6167 7.81134 6.769 7.81134 6.95514C7.81134 7.14129 7.96364 7.29359 8.14978 7.29359H9.47648L9.75739 8.3766L11.057 13.3687C11.0942 13.5176 11.2296 13.6225 11.3853 13.6225H17.1829C17.4164 13.6225 17.6094 13.812 17.6094 14.049C17.6094 14.2859 17.4164 14.4754 17.1829 14.4754H11.7544C11.1147 14.4754 10.5935 14.9966 10.5935 15.6396C10.5935 16.2793 11.1147 16.8005 11.7544 16.8005C12.3974 16.8005 12.9186 16.2793 12.9186 15.6396C12.9186 15.467 12.8814 15.3012 12.8103 15.1523H15.7447C15.6736 15.3012 15.6364 15.467 15.6364 15.6396C15.6364 16.2793 16.1576 16.8005 16.8006 16.8005C17.4403 16.8005 17.9615 16.2793 17.9615 15.6396C17.9615 15.396 17.887 15.1726 17.7584 14.9865C18.0766 14.7969 18.2864 14.4483 18.2864 14.049C18.2864 13.5954 18.0122 13.2063 17.6196 13.037L18.9633 8.93499C19.0377 8.70822 18.9971 8.45439 18.8583 8.26148C18.7162 8.06857 18.4894 7.95349 18.2525 7.95349L18.2523 7.95356ZM13.2061 11.6393C13.2061 11.8288 13.0538 11.9777 12.8676 11.9777C12.6781 11.9777 12.5292 11.8288 12.5292 11.6393V10.1264C12.5292 9.94029 12.6781 9.78799 12.8676 9.78799C13.0538 9.78799 13.2061 9.94029 13.2061 10.1264V11.6393ZM14.0353 11.6393V10.1264C14.0353 9.94029 14.1876 9.78799 14.3737 9.78799C14.5599 9.78799 14.7122 9.94029 14.7122 10.1264V11.6393C14.7122 11.8288 14.5599 11.9777 14.3737 11.9777C14.1876 11.9777 14.0353 11.8288 14.0353 11.6393ZM16.2182 11.6393C16.2182 11.8288 16.0693 11.9777 15.8798 11.9777C15.6936 11.9777 15.5413 11.8288 15.5413 11.6393V10.1264C15.5413 9.94029 15.6936 9.78799 15.8798 9.78799C16.0693 9.78799 16.2182 9.94029 16.2182 10.1264V11.6393Z" fill="#67A92A"/>
<path d="M14.0522 15.829H13.5851C13.4903 16.753 12.7052 17.4772 11.7541 17.4772C10.7422 17.4772 9.91639 16.6514 9.91639 15.6395C9.91639 14.9897 10.2548 14.4177 10.7659 14.0894C10.5899 13.9541 10.4579 13.7611 10.4004 13.5344L8.95183 7.97027H8.14972C7.5913 7.97027 7.1344 7.51337 7.1344 6.95495C7.1344 6.39652 7.5913 5.93962 8.14972 5.93962H9.73702C10.1939 5.93962 10.5967 6.2476 10.7185 6.69097L10.8708 7.27647H14.0523V3.40815H10.9791C10.7929 3.40815 10.6406 3.25585 10.6406 3.06971V0H0V18.9528H14.0522L14.0522 15.829ZM5.24592 16.2961C5.24592 16.4822 5.097 16.6345 4.90747 16.6345H1.74311C1.55697 16.6345 1.40467 16.4822 1.40467 16.2961V13.1317C1.40467 12.9456 1.55697 12.7933 1.74311 12.7933H4.90747C5.097 12.7933 5.24592 12.9456 5.24592 13.1317V16.2961ZM5.24592 11.6257C5.24592 11.8118 5.097 11.9641 4.90747 11.9641H1.74311C1.55697 11.9641 1.40467 11.8118 1.40467 11.6257V8.46129C1.40467 8.27515 1.55697 8.12285 1.74311 8.12285H4.90747C5.097 8.12285 5.24592 8.27515 5.24592 8.46129V11.6257ZM5.24592 6.95525C5.24592 7.14139 5.097 7.29369 4.90747 7.29369H1.74311C1.55697 7.29369 1.40467 7.14139 1.40467 6.95525V3.79089C1.40467 3.60474 1.55697 3.45244 1.74311 3.45244H4.90747C5.097 3.45244 5.24592 3.60474 5.24592 3.79089V6.95525Z" fill="#67A92A"/>
<path d="M2.08136 6.61669H4.56883V4.12921H2.08136V6.61669ZM2.44688 5.16137C2.57887 5.02599 2.7921 5.02599 2.92408 5.16137L3.09668 5.33059L3.72618 4.6977C3.85817 4.5657 4.07478 4.5657 4.20678 4.6977C4.33878 4.82969 4.33877 5.04292 4.20678 5.1749L3.33361 6.04807C3.2693 6.11237 3.18469 6.14622 3.09668 6.14622C3.0053 6.14622 2.92069 6.11237 2.85638 6.04807L2.44687 5.63856C2.31488 5.50657 2.31488 5.29335 2.44688 5.16137Z" fill="#67A92A"/>
<path d="M2.08136 11.2871H4.56883V8.79962H2.08136V11.2871ZM2.44688 9.83178C2.57887 9.6964 2.7921 9.6964 2.92408 9.83178L3.09668 10.001L3.72618 9.36811C3.85817 9.23611 4.07478 9.23611 4.20678 9.36811C4.33878 9.5001 4.33877 9.71333 4.20678 9.84531L3.33361 10.7185C3.2693 10.7828 3.18131 10.8166 3.09668 10.8166C3.00869 10.8166 2.92069 10.7828 2.85638 10.7185L2.44687 10.309C2.31488 10.177 2.31488 9.96376 2.44688 9.83178Z" fill="#67A92A"/>
<path d="M2.08136 15.9576H4.56883V13.4702H2.08136V15.9576ZM2.44688 14.5023C2.57887 14.3669 2.7921 14.3669 2.92408 14.5023L3.09668 14.6715L3.72618 14.0386C3.85817 13.9066 4.07478 13.9066 4.20678 14.0386C4.33878 14.1706 4.33877 14.3839 4.20678 14.5158L3.33361 15.389C3.2693 15.4533 3.18131 15.4872 3.09668 15.4872C3.00869 15.4872 2.92069 15.4533 2.85638 15.389L2.44687 14.9795C2.31488 14.8475 2.31488 14.6343 2.44688 14.5023Z" fill="#67A92A"/>
</svg>
