<svg width="18" height="20" viewBox="0 0 18 20" fill="none" xmlns="http://www.w3.org/2000/svg">
<path fill-rule="evenodd" clip-rule="evenodd" d="M4.84591 1.41307C4.8134 1.41405 4.78102 1.40851 4.7507 1.39677C4.72037 1.38503 4.69272 1.36734 4.66937 1.34474C4.64602 1.32213 4.62746 1.29508 4.61479 1.26519C4.60212 1.23529 4.59558 1.20316 4.59558 1.1707C4.59558 1.13824 4.60212 1.10611 4.61479 1.07622C4.62746 1.04633 4.64602 1.01928 4.66937 0.996673C4.69272 0.97407 4.72037 0.956375 4.7507 0.944638C4.78102 0.9329 4.8134 0.927358 4.84591 0.92834H6.08662C6.14976 0.930249 6.20967 0.95662 6.25366 1.00186C6.29764 1.04711 6.32224 1.10767 6.32224 1.1707C6.32224 1.23374 6.29764 1.2943 6.25366 1.33955C6.20967 1.38479 6.14976 1.41116 6.08662 1.41307H4.84591ZM5.97906 15.6271H4.95326C4.91261 15.6276 4.87377 15.644 4.84502 15.6727C4.81627 15.7013 4.79989 15.7401 4.79937 15.7807V15.9303C4.79989 15.9708 4.81627 16.0096 4.84502 16.0383C4.87377 16.067 4.91261 16.0833 4.95326 16.0838H5.97906C6.01971 16.0833 6.05855 16.067 6.0873 16.0383C6.11605 16.0096 6.13243 15.9708 6.13295 15.9303V15.7798C6.13243 15.7392 6.11605 15.7005 6.0873 15.6718C6.05855 15.6431 6.01971 15.6267 5.97906 15.6262V15.6271ZM4.95326 15.1426H5.97906C6.14841 15.1428 6.31077 15.21 6.4306 15.3294C6.55044 15.4488 6.61798 15.6108 6.61845 15.7798V15.9294C6.61822 16.0985 6.55078 16.2607 6.43092 16.3803C6.31106 16.4999 6.14856 16.5672 5.97906 16.5674H4.95326C4.78377 16.5671 4.62131 16.4998 4.50146 16.3802C4.38162 16.2606 4.31416 16.0985 4.31386 15.9294V15.7798C4.31416 15.6106 4.38162 15.4485 4.50146 15.3289C4.62131 15.2093 4.78377 15.142 4.95326 15.1417V15.1426ZM9.85975 14.0389C9.71744 13.7337 9.58827 13.4313 9.45687 13.1241C9.20691 12.5137 8.9257 11.9164 8.61437 11.3348C8.50787 11.1594 8.45918 10.9551 8.47516 10.7506C8.49115 10.5462 8.57099 10.3519 8.70345 10.1951C8.79447 10.0848 8.90583 9.99287 9.0315 9.92437C9.15727 9.85531 9.29505 9.81074 9.4375 9.79302C9.64115 9.76594 9.84819 9.8033 10.0295 9.89982C10.2107 9.99635 10.3571 10.1472 10.4479 10.3311L10.9334 11.2152V0.948787C10.9325 0.69725 10.8319 0.456299 10.6535 0.278538C10.4752 0.100777 10.2336 0.000643975 9.98157 0H0.950743C0.698879 0.000936775 0.457599 0.101199 0.279503 0.278928C0.101407 0.456658 0.000938705 0.697442 0 0.948787V14.0393L9.85975 14.0389ZM10.9323 15.3444V16.1763C10.9314 16.4276 10.8309 16.6684 10.6528 16.8461C10.4747 17.0239 10.2334 17.1241 9.98157 17.1251H0.950743C0.698879 17.1241 0.457599 17.0239 0.279503 16.8461C0.101407 16.6684 0.000938705 16.4276 0 16.1763V14.5234H10.1005C10.1724 14.648 10.2578 14.7644 10.3551 14.8706C10.4667 14.9906 10.5899 15.0993 10.723 15.195C10.7675 15.2282 10.808 15.2562 10.8484 15.2839C10.8763 15.3035 10.9043 15.3234 10.9323 15.3437V15.3444ZM17.9661 17.2558L17.3232 16.0865C17.287 16.0211 17.2263 15.9727 17.1544 15.9518C17.0825 15.931 17.0053 15.9395 16.9397 15.9754L12.6973 18.2961C12.6901 18.3008 12.6827 18.305 12.675 18.3088C12.6141 18.3453 12.5691 18.4035 12.5492 18.4716C12.5293 18.5397 12.5358 18.6128 12.5674 18.6764C12.572 18.6835 12.5762 18.691 12.5799 18.6986L13.2153 19.8543C13.2516 19.9196 13.3123 19.968 13.3842 19.9888C13.4561 20.0096 13.5333 20.0012 13.599 19.9654L17.8539 17.6394C17.9194 17.6033 17.9679 17.5428 17.9888 17.4711C18.0097 17.3994 18.0012 17.3223 17.9652 17.2569L17.9661 17.2558ZM12.6973 17.744C12.6082 17.476 12.4746 17.1217 12.3365 16.7755C12.1751 16.3513 11.9903 15.9364 11.7831 15.5326C11.6657 15.3405 11.5124 15.1725 11.3316 15.0379C11.3262 15.0332 11.3206 15.0289 11.3147 15.0248C11.2521 14.977 11.1893 14.9328 11.1274 14.889C11.0855 14.8597 11.0441 14.8306 11.0096 14.805C10.9021 14.7283 10.8024 14.6412 10.7121 14.545C10.6185 14.4425 10.5396 14.3275 10.4778 14.2034L10.4704 14.1887C10.466 14.1779 10.4607 14.1674 10.4546 14.1574C10.2515 13.7509 10.0791 13.347 9.90296 12.935C9.64671 12.3094 9.35845 11.6974 9.03929 11.1014C8.98186 11.01 8.95459 10.903 8.96135 10.7953C8.9681 10.6877 9.00852 10.5848 9.07693 10.5013C9.18249 10.3758 9.33144 10.2944 9.49429 10.2733C9.60171 10.2606 9.71042 10.2818 9.80511 10.334C9.8998 10.3862 9.97569 10.4667 10.0221 10.5642L10.9557 12.2633C10.9599 12.2724 10.9646 12.2811 10.97 12.2896L11.1797 12.6712C11.1951 12.699 11.2157 12.7236 11.2405 12.7435C11.2654 12.7633 11.2939 12.7781 11.3244 12.787C11.355 12.7959 11.387 12.7987 11.4186 12.7952C11.4503 12.7918 11.4809 12.7821 11.5088 12.7668C11.5367 12.7516 11.5613 12.731 11.5812 12.7062C11.6011 12.6814 11.616 12.653 11.6249 12.6225C11.6338 12.592 11.6366 12.56 11.6331 12.5285C11.6296 12.4969 11.62 12.4663 11.6047 12.4385L11.4183 12.0991V8.7789L11.6855 8.84557C12.1296 8.9567 12.659 9.09005 12.7955 9.13961C12.9831 9.19881 13.1626 9.28092 13.33 9.38408C13.4464 9.46769 13.5465 9.57187 13.6253 9.69145C13.8878 10.0702 14.1163 10.4714 14.3079 10.8903C14.4624 11.2008 14.5725 11.5314 14.6348 11.8724C14.6513 12.0137 14.6564 12.1561 14.6502 12.2982C14.6453 12.4371 14.6328 12.568 14.6226 12.6761V12.6776C14.5961 12.9516 14.5812 13.1057 14.9515 13.6709C15.1137 13.9184 15.364 14.2645 15.6586 14.6599C15.8831 14.961 16.1586 15.3235 16.4426 15.6962L12.6973 17.744ZM7.20239 5.91297C7.60411 6.31382 7.85413 6.84126 7.90987 7.40544C7.9656 7.96962 7.8236 8.53563 7.50805 9.00704C7.19251 9.47845 6.72294 9.8261 6.17934 9.99076C5.63575 10.1554 5.05177 10.1269 4.52688 9.91005C4.002 9.69321 3.56869 9.30146 3.30078 8.80156C3.03287 8.30165 2.94693 7.72451 3.0576 7.16845C3.16827 6.6124 3.46871 6.11185 3.90773 5.75206C4.34675 5.39228 4.89719 5.19553 5.46527 5.19533C5.78793 5.19478 6.10751 5.2579 6.40563 5.38106C6.70376 5.50422 6.97454 5.68499 7.20239 5.91297ZM5.46527 4.71082C6.14571 4.71076 6.80513 4.94616 7.33115 5.37691C7.85718 5.80765 8.21726 6.40709 8.35005 7.07308C8.48284 7.73907 8.38013 8.43041 8.0594 9.02929C7.73867 9.62817 7.21978 10.0975 6.59114 10.3574C5.9625 10.6173 5.26301 10.6516 4.61186 10.4545C3.96071 10.2575 3.39818 9.84114 3.02013 9.27654C2.64208 8.71195 2.4719 8.034 2.53858 7.35822C2.60527 6.68244 2.90469 6.05065 3.38584 5.57049C3.65876 5.29758 3.98306 5.08121 4.34008 4.93383C4.6971 4.78645 5.0798 4.71096 5.46616 4.71171L5.46527 4.71082ZM5.70802 9.36497C5.70802 9.42922 5.68244 9.49084 5.63692 9.53627C5.59139 9.5817 5.52965 9.60722 5.46527 9.60722C5.40089 9.60722 5.33914 9.5817 5.29362 9.53627C5.24809 9.49084 5.22251 9.42922 5.22251 9.36497V9.22517C5.0256 9.1718 4.85175 9.05525 4.72778 8.89351C4.60382 8.73176 4.53663 8.5338 4.53657 8.33017C4.53657 8.26592 4.56215 8.2043 4.60767 8.15887C4.6532 8.11344 4.71494 8.08792 4.77933 8.08792C4.84371 8.08792 4.90545 8.11344 4.95098 8.15887C4.9965 8.2043 5.02208 8.26592 5.02208 8.33017C5.02201 8.44092 5.06359 8.54766 5.13861 8.62928C5.21363 8.71089 5.31661 8.76143 5.42718 8.77089C5.45243 8.76704 5.47811 8.76704 5.50335 8.77089C5.61396 8.76153 5.717 8.71102 5.79204 8.62938C5.86708 8.54775 5.90863 8.44095 5.90846 8.33017C5.90873 8.27809 5.89852 8.22649 5.87844 8.17843C5.85836 8.13036 5.8288 8.08681 5.79153 8.05036C5.69594 7.96055 5.57433 7.90321 5.44411 7.88656C5.43754 7.88607 5.431 7.88526 5.42451 7.88411C5.18652 7.84962 4.96488 7.74302 4.78957 7.57874C4.70797 7.49823 4.64356 7.40205 4.60023 7.29601C4.5569 7.18998 4.53555 7.07628 4.53746 6.96178C4.53752 6.75814 4.60471 6.56019 4.72867 6.39844C4.85264 6.23669 5.02649 6.12014 5.22341 6.06677V5.92698C5.22341 5.86273 5.24898 5.80111 5.29451 5.75568C5.34003 5.71025 5.40178 5.68472 5.46616 5.68472C5.53054 5.68472 5.59228 5.71025 5.63781 5.75568C5.68333 5.80111 5.70891 5.86273 5.70891 5.92698V6.06677C5.90564 6.12022 6.07932 6.23671 6.20322 6.3983C6.32711 6.55989 6.39437 6.75764 6.39463 6.96111C6.39272 7.02412 6.36629 7.08391 6.32096 7.1278C6.27562 7.17169 6.21493 7.19624 6.15177 7.19624C6.0886 7.19624 6.02791 7.17169 5.98258 7.1278C5.93724 7.08391 5.91081 7.02412 5.9089 6.96111C5.90908 6.85033 5.86752 6.74353 5.79249 6.6619C5.71745 6.58026 5.61441 6.52975 5.5038 6.52039C5.47855 6.52424 5.45287 6.52424 5.42763 6.52039C5.31706 6.52985 5.21408 6.58039 5.13906 6.662C5.06404 6.74362 5.02245 6.85036 5.02252 6.96111C5.02135 7.01187 5.03049 7.06234 5.0494 7.10948C5.06831 7.15661 5.09659 7.19944 5.13254 7.23537C5.23682 7.32917 5.36724 7.38909 5.50647 7.40716H5.51293C5.747 7.43841 5.96498 7.54337 6.13517 7.70676C6.21801 7.78783 6.28367 7.8847 6.32824 7.99161C6.37282 8.09851 6.39539 8.21327 6.39463 8.32906C6.39449 8.5327 6.32724 8.73065 6.20324 8.89238C6.07925 9.05412 5.90539 9.17066 5.70847 9.22406V9.36386L5.70802 9.36497ZM2.61237 12.3687C2.54799 12.3687 2.48624 12.3942 2.44072 12.4396C2.39519 12.4851 2.36962 12.5467 2.36962 12.6109V12.8405L1.10998 11.898L2.36962 10.9552V11.185C2.36962 11.2492 2.39519 11.3108 2.44072 11.3563C2.48624 11.4017 2.54799 11.4272 2.61237 11.4272H4.27489V12.3687H2.61237ZM4.51764 12.8532H2.85557V13.3239C2.8555 13.3707 2.84187 13.4165 2.81631 13.4557C2.79075 13.495 2.75436 13.526 2.71154 13.545C2.66871 13.5641 2.62127 13.5704 2.57494 13.5631C2.52862 13.5559 2.48539 13.5354 2.45046 13.5042L0.562339 12.0904C0.536914 12.0714 0.515495 12.0476 0.499305 12.0203C0.483115 11.993 0.472472 11.9628 0.467983 11.9314C0.463495 11.9 0.46525 11.868 0.473148 11.8373C0.481046 11.8066 0.494931 11.7777 0.514011 11.7524C0.528777 11.7327 0.546506 11.7154 0.56657 11.701L2.46761 10.2786C2.50353 10.2517 2.54625 10.2353 2.59099 10.2313C2.63572 10.2272 2.6807 10.2357 2.72088 10.2557C2.76106 10.2758 2.79487 10.3066 2.8185 10.3447C2.84213 10.3828 2.85466 10.4267 2.85468 10.4716V10.9423H4.5172C4.5816 10.9423 4.64334 10.9679 4.68886 11.0134C4.73438 11.0588 4.75995 11.1205 4.75995 11.1848V12.6107C4.75995 12.675 4.73437 12.7366 4.68885 12.782C4.64332 12.8274 4.58158 12.853 4.5172 12.853L4.51764 12.8532ZM8.10058 4.38745H6.43784C6.37345 4.38745 6.31171 4.36192 6.26618 4.31649C6.22066 4.27106 6.19508 4.20944 6.19508 4.14519V2.71924C6.19508 2.65499 6.22066 2.59337 6.26618 2.54794C6.31171 2.50251 6.37345 2.47698 6.43784 2.47698H8.10058V2.00626C8.1005 1.96142 8.11296 1.91744 8.13655 1.87928C8.16014 1.84111 8.19392 1.81027 8.2341 1.79021C8.27429 1.77014 8.31928 1.76166 8.36403 1.76571C8.40878 1.76976 8.45151 1.78617 8.48742 1.81312L10.3887 3.23552C10.4087 3.24997 10.4264 3.26735 10.4412 3.28709C10.4797 3.33831 10.4962 3.40268 10.4871 3.46603C10.478 3.52938 10.444 3.58653 10.3927 3.62491L8.50546 5.03842C8.4706 5.06977 8.42736 5.09036 8.38101 5.09768C8.33465 5.105 8.28716 5.09873 8.2443 5.07965C8.20144 5.06057 8.16505 5.02949 8.13953 4.99018C8.11402 4.95087 8.10049 4.90501 8.10058 4.85817V4.38745ZM6.68059 3.90294V2.96149H8.34333C8.37521 2.96149 8.40678 2.95522 8.43623 2.94305C8.46568 2.93087 8.49244 2.91303 8.51498 2.89053C8.53752 2.86804 8.5554 2.84133 8.5676 2.81194C8.5798 2.78255 8.58608 2.75105 8.58608 2.71924V2.48921L9.84661 3.43221L8.58608 4.375V4.14519C8.58608 4.11338 8.5798 4.08188 8.5676 4.05249C8.5554 4.0231 8.53752 3.99639 8.51498 3.9739C8.49244 3.9514 8.46568 3.93356 8.43623 3.92138C8.40678 3.90921 8.37521 3.90294 8.34333 3.90294H6.68059Z" fill="#67A92A"/>
</svg>
