<svg width="20" height="15" viewBox="0 0 20 15" fill="none" xmlns="http://www.w3.org/2000/svg">
<path fill-rule="evenodd" clip-rule="evenodd" d="M17.7778 12.75C17.7778 13.3472 17.5435 13.9191 17.1269 14.3409C16.7102 14.7628 16.1444 15 15.5556 15H2.22222C1.63333 15 1.06759 14.7628 0.650927 14.3409C0.234264 13.9191 0 13.3472 0 12.75V2.25C0 1.65281 0.234259 1.08094 0.650927 0.659064C1.06759 0.237192 1.63333 0 2.22222 0H15.5556C16.1444 0 16.7102 0.237187 17.1269 0.659064C17.5435 1.08094 17.7778 1.65281 17.7778 2.25H12.5926C9.73061 2.25 7.40741 4.60313 7.40741 7.5C7.40741 10.3969 9.73056 12.75 12.5926 12.75H17.7778ZM2.22222 4.5H5.92593C6.33427 4.5 6.66667 4.16438 6.66667 3.75C6.66667 3.33562 6.33427 3 5.92593 3H2.22222C1.81295 3 1.48148 3.33562 1.48148 3.75C1.48148 4.16438 1.81295 4.5 2.22222 4.5ZM12.5926 11.25C10.5491 11.25 8.88889 9.57 8.88889 7.5C8.88889 5.43 10.5491 3.75 12.5926 3.75H17.7778C19.0046 3.75 20 4.75687 20 6V9C20 10.2431 19.0046 11.25 17.7778 11.25H12.5926ZM12.5926 6.75C12.1842 6.75 11.8519 7.08562 11.8519 7.5C11.8519 7.91438 12.1842 8.25 12.5926 8.25C13.0009 8.25 13.3333 7.91438 13.3333 7.5C13.3333 7.08562 13.0009 6.75 12.5926 6.75Z" fill="#67A92A"/>
</svg>
