<svg width="17" height="17" viewBox="0 0 17 17" fill="none" xmlns="http://www.w3.org/2000/svg">
<path fill-rule="evenodd" clip-rule="evenodd" d="M8.5 0C13.1916 0 17 3.80839 17 8.5C17 13.1916 13.1916 17 8.5 17C3.80839 17 0 13.1916 0 8.5C0 3.80839 3.80839 0 8.5 0ZM8.5 3.03571C8.1342 3.03571 7.76537 3.2171 7.46102 3.61097C7.01704 4.18777 6.67857 5.34132 6.67857 6.67855C6.67857 8.01654 7.01706 9.1693 7.46102 9.74613C7.76535 10.14 8.13418 10.3214 8.5 10.3214C8.86582 10.3214 9.23463 10.14 9.53898 9.74613C9.98296 9.16933 10.3214 8.01654 10.3214 6.67855C10.3214 5.34132 9.98294 4.18781 9.53898 3.61097C9.23465 3.2171 8.86582 3.03571 8.5 3.03571ZM8.5 10.9286C7.65379 10.9286 6.96697 11.6154 6.96697 12.4616C6.96697 13.3078 7.65381 13.9946 8.5 13.9946C9.34619 13.9946 10.033 13.3078 10.033 12.4616C10.033 11.6154 9.34619 10.9286 8.5 10.9286Z" fill="#67A92A"/>
</svg>
