<svg width="20" height="16" viewBox="0 0 20 16" fill="none" xmlns="http://www.w3.org/2000/svg">
<path d="M18.9541 1.40548L14.1191 0.0809942C13.3578 -0.0898084 12.5596 0.0114429 11.8671 0.366661L0.701843 6.79211C0.379653 6.97677 0.144679 7.27936 0.0481602 7.63391C-0.048359 7.98846 0.00140519 8.36621 0.186601 8.68478L4.09313 15.3145C4.28194 15.6309 4.59026 15.8609 4.95075 15.9543C5.31124 16.0477 5.6946 15.9968 6.01712 15.8128L17.362 9.36762C18.015 8.95693 18.5018 8.33458 18.7383 7.60808L19.9558 3.104C20.048 2.74813 19.9948 2.37082 19.8075 2.0532C19.6202 1.73558 19.3137 1.503 18.9541 1.40548ZM3.03081 8.57794L2.86134 8.31932C2.83884 8.28536 2.82338 8.24735 2.81584 8.20749C2.80831 8.16763 2.80885 8.12669 2.81743 8.08703C2.82601 8.04738 2.84247 8.00978 2.86586 7.9764C2.88925 7.94303 2.9191 7.91454 2.95371 7.89256C2.98832 7.87058 3.027 7.85555 3.06752 7.84834C3.10805 7.84113 3.14962 7.84187 3.18985 7.85053C3.23008 7.85919 3.26818 7.87559 3.30195 7.89879C3.33573 7.92199 3.36451 7.95153 3.38665 7.98572L3.55614 8.24434C3.57845 8.2783 3.59374 8.31626 3.60114 8.35605C3.60853 8.39583 3.60789 8.43667 3.59925 8.47621C3.59061 8.51575 3.57414 8.55323 3.55078 8.5865C3.52741 8.61977 3.49762 8.64817 3.4631 8.6701C3.42858 8.69202 3.39 8.70703 3.34959 8.71426C3.30917 8.72149 3.2677 8.72081 3.22755 8.71225C3.18741 8.70369 3.14936 8.68742 3.11561 8.66438C3.08185 8.64133 3.05303 8.61196 3.03081 8.57794ZM3.62382 9.48302L3.45442 9.2244C3.41 9.15582 3.39497 9.0727 3.41261 8.99324C3.43025 8.91377 3.47912 8.84441 3.54855 8.80032C3.61797 8.75623 3.7023 8.741 3.7831 8.75796C3.8639 8.77491 3.9346 8.82268 3.97973 8.8908L4.14914 9.14942C4.17163 9.18339 4.1871 9.22139 4.19463 9.26125C4.20217 9.30112 4.20163 9.34205 4.19304 9.38171C4.18446 9.42137 4.168 9.45897 4.14461 9.49234C4.12122 9.52571 4.09137 9.55421 4.05676 9.57619C4.02215 9.59816 3.98348 9.61319 3.94295 9.6204C3.90243 9.62761 3.86086 9.62687 3.82062 9.61821C3.78039 9.60956 3.74229 9.59316 3.70852 9.56996C3.67475 9.54675 3.64596 9.51721 3.62382 9.48302ZM4.21689 10.3881L4.04749 10.1295C4.00307 10.0609 3.98804 9.97779 4.00568 9.89832C4.02331 9.81885 4.07219 9.74949 4.14161 9.70541C4.21104 9.66132 4.29537 9.64608 4.37617 9.66304C4.45697 9.68 4.52766 9.72776 4.5728 9.79589L4.7422 10.0545C4.76451 10.0885 4.7798 10.1264 4.7872 10.1662C4.7946 10.206 4.79396 10.2468 4.78532 10.2864C4.77668 10.3259 4.7602 10.3634 4.73684 10.3967C4.71348 10.4299 4.68368 10.4583 4.64916 10.4803C4.61464 10.5022 4.57607 10.5172 4.53565 10.5244C4.49523 10.5317 4.45377 10.531 4.41362 10.5224C4.37347 10.5139 4.33543 10.4976 4.30167 10.4745C4.26791 10.4515 4.23911 10.4221 4.21689 10.3881ZM4.80997 11.2933L4.64057 11.0347C4.59615 10.9661 4.58112 10.883 4.59876 10.8036C4.6164 10.7241 4.66527 10.6547 4.7347 10.6106C4.80412 10.5666 4.88845 10.5513 4.96925 10.5683C5.05005 10.5852 5.12074 10.633 5.16588 10.7011L5.33528 10.9597C5.35778 10.9937 5.37324 11.0317 5.38078 11.0716C5.38832 11.1114 5.38778 11.1524 5.37919 11.192C5.37061 11.2317 5.35415 11.2693 5.33076 11.3027C5.30737 11.336 5.27752 11.3645 5.24291 11.3865C5.2083 11.4085 5.16963 11.4235 5.1291 11.4307C5.08858 11.4379 5.047 11.4372 5.00677 11.4285C4.96654 11.4199 4.92844 11.4035 4.89467 11.3803C4.8609 11.3571 4.83211 11.3275 4.80997 11.2933ZM5.40304 12.1984L5.23363 11.9398C5.21113 11.9058 5.19567 11.8678 5.18814 11.828C5.1806 11.7881 5.18114 11.7472 5.18973 11.7075C5.19831 11.6679 5.21477 11.6303 5.23816 11.5969C5.26154 11.5635 5.2914 11.535 5.32601 11.513C5.36062 11.4911 5.39929 11.476 5.43982 11.4688C5.48034 11.4616 5.52191 11.4624 5.56215 11.471C5.60238 11.4797 5.64047 11.4961 5.67425 11.5193C5.70802 11.5425 5.73681 11.572 5.75895 11.6062L5.92835 11.8648C5.95066 11.8988 5.96595 11.9367 5.97335 11.9765C5.98075 12.0163 5.98011 12.0572 5.97147 12.0967C5.96282 12.1362 5.94635 12.1737 5.92299 12.207C5.89963 12.2403 5.86983 12.2687 5.83531 12.2906C5.80079 12.3125 5.76222 12.3275 5.7218 12.3347C5.68138 12.342 5.63991 12.3413 5.59977 12.3327C5.55962 12.3242 5.52158 12.3079 5.48782 12.2849C5.45406 12.2618 5.42526 12.2324 5.40304 12.1984ZM6.41903 13.1813C6.38454 13.2033 6.346 13.2183 6.30562 13.2255C6.26524 13.2327 6.2238 13.2321 6.18368 13.2236C6.14356 13.215 6.10553 13.1988 6.07178 13.1758C6.03803 13.1528 6.00921 13.1235 5.98696 13.0895L5.82671 12.8449C5.80421 12.8109 5.78875 12.7729 5.78121 12.7331C5.77368 12.6932 5.77422 12.6523 5.7828 12.6126C5.79139 12.5729 5.80785 12.5354 5.83123 12.502C5.85462 12.4686 5.88448 12.4401 5.91908 12.4181C5.95369 12.3962 5.99237 12.3811 6.03289 12.3739C6.07342 12.3667 6.11499 12.3674 6.15522 12.3761C6.19545 12.3848 6.23355 12.4012 6.26732 12.4244C6.3011 12.4476 6.32988 12.4771 6.35202 12.5113L6.51228 12.7559C6.5572 12.8245 6.57262 12.9079 6.55513 12.9877C6.53765 13.0674 6.48868 13.1371 6.41903 13.1813ZM7.03103 5.99823C7.03103 5.78519 7.09519 5.57693 7.21539 5.39979C7.3356 5.22265 7.50645 5.08458 7.70635 5.00305C7.90625 4.92152 8.12621 4.90019 8.33843 4.94175C8.55064 4.98331 8.74557 5.08589 8.89857 5.23654C9.05156 5.38718 9.15576 5.57911 9.19797 5.78806C9.24018 5.99701 9.21852 6.21359 9.13572 6.41042C9.05292 6.60724 8.9127 6.77548 8.7328 6.89384C8.55289 7.0122 8.34138 7.07537 8.12501 7.07537C7.83498 7.07504 7.55692 6.96145 7.35183 6.75952C7.14674 6.55759 7.03138 6.28381 7.03103 5.99823ZM7.81222 10.1529C7.75481 10.1529 7.69851 10.1373 7.6495 10.1079C7.6005 10.0784 7.56068 10.0362 7.53443 9.98597C7.50817 9.93569 7.49649 9.87927 7.50067 9.82289C7.50485 9.7665 7.52473 9.71235 7.55812 9.66636L10.6838 5.35778C10.7076 5.32489 10.7378 5.29695 10.7726 5.27555C10.8074 5.25416 10.8462 5.23972 10.8867 5.23307C10.9272 5.22642 10.9686 5.22769 11.0086 5.2368C11.0485 5.24591 11.0863 5.26269 11.1197 5.28617C11.1531 5.30965 11.1815 5.33938 11.2032 5.37366C11.2249 5.40795 11.2396 5.4461 11.2464 5.48596C11.2531 5.52582 11.2518 5.5666 11.2426 5.60597C11.2333 5.64534 11.2163 5.68253 11.1924 5.71542L8.0668 10.024C8.03789 10.0639 7.9997 10.0965 7.95542 10.1189C7.91113 10.1413 7.86202 10.153 7.81222 10.1529ZM10.6255 10.4607C10.4092 10.4607 10.1977 10.3975 10.0178 10.2792C9.83786 10.1608 9.69765 9.99257 9.61485 9.79574C9.53205 9.59892 9.51038 9.38234 9.5526 9.1734C9.59481 8.96445 9.699 8.77252 9.85199 8.62188C10.005 8.47124 10.1999 8.36865 10.4121 8.32709C10.6243 8.28553 10.8443 8.30686 11.0442 8.38839C11.2441 8.46992 11.4149 8.60798 11.5351 8.78512C11.6553 8.96225 11.7195 9.17051 11.7195 9.38355C11.7192 9.66912 11.6038 9.9429 11.3987 10.1448C11.1936 10.3468 10.9156 10.4604 10.6255 10.4607ZM12.7203 2.88445L12.5508 2.62583C12.5283 2.59187 12.5129 2.55387 12.5053 2.514C12.4978 2.47414 12.4983 2.4332 12.5069 2.39355C12.5155 2.35389 12.532 2.31629 12.5554 2.28292C12.5787 2.24954 12.6086 2.22105 12.6432 2.19907C12.6778 2.17709 12.7165 2.16207 12.757 2.15485C12.7975 2.14764 12.8391 2.14839 12.8793 2.15704C12.9196 2.1657 12.9577 2.1821 12.9914 2.2053C13.0252 2.2285 13.054 2.25805 13.0761 2.29223L13.2456 2.55085C13.2679 2.58482 13.2832 2.62278 13.2906 2.66256C13.298 2.70235 13.2974 2.74318 13.2887 2.78272C13.2801 2.82226 13.2636 2.85974 13.2403 2.89301C13.2169 2.92628 13.1871 2.95469 13.1526 2.97661C13.1181 2.99853 13.0795 3.01354 13.0391 3.02077C12.9987 3.02801 12.9572 3.02732 12.917 3.01876C12.8769 3.0102 12.8389 2.99394 12.8051 2.97089C12.7713 2.94784 12.7425 2.91847 12.7203 2.88445ZM13.3133 3.78953L13.1439 3.53092C13.0991 3.46232 13.0838 3.37903 13.1013 3.29933C13.1188 3.21962 13.1678 3.15003 13.2374 3.10583C13.307 3.06163 13.3916 3.04643 13.4725 3.06359C13.5535 3.08074 13.6243 3.12884 13.6692 3.19732L13.8386 3.45594C13.8611 3.4899 13.8766 3.5279 13.8841 3.56777C13.8917 3.60763 13.8911 3.64857 13.8825 3.68822C13.874 3.72788 13.8575 3.76548 13.8341 3.79885C13.8107 3.83223 13.7809 3.86072 13.7463 3.8827C13.7117 3.90468 13.673 3.9197 13.6325 3.92692C13.5919 3.93413 13.5504 3.93338 13.5101 3.92473C13.4699 3.91607 13.4318 3.89967 13.398 3.87647C13.3642 3.85327 13.3355 3.82372 13.3133 3.78953ZM13.9064 4.69462L13.737 4.436C13.6926 4.36741 13.6775 4.2843 13.6952 4.20483C13.7128 4.12537 13.7617 4.05601 13.8311 4.01192C13.9005 3.96783 13.9849 3.9526 14.0657 3.96955C14.1465 3.98651 14.2172 4.03427 14.2623 4.1024L14.4317 4.36102C14.4542 4.39498 14.4697 4.43299 14.4772 4.47285C14.4847 4.51271 14.4842 4.55365 14.4756 4.59331C14.467 4.63296 14.4506 4.67056 14.4272 4.70394C14.4038 4.73731 14.3739 4.7658 14.3393 4.78778C14.3047 4.80976 14.2661 4.82479 14.2255 4.832C14.185 4.83921 14.1434 4.83847 14.1032 4.82981C14.063 4.82115 14.0249 4.80475 13.9911 4.78155C13.9573 4.75835 13.9285 4.72881 13.9064 4.69462ZM14.4995 5.59985L14.3301 5.34123C14.3077 5.30727 14.2925 5.26931 14.2851 5.22953C14.2777 5.18974 14.2783 5.14891 14.2869 5.10937C14.2956 5.06982 14.3121 5.03235 14.3354 4.99908C14.3588 4.96581 14.3886 4.9374 14.4231 4.91548C14.4576 4.89356 14.4962 4.87855 14.5366 4.87132C14.577 4.86408 14.6185 4.86477 14.6586 4.87333C14.6988 4.88189 14.7368 4.89815 14.7706 4.9212C14.8043 4.94425 14.8332 4.97362 14.8554 5.00764L15.0248 5.26626C15.0473 5.30022 15.0627 5.33822 15.0703 5.37809C15.0778 5.41795 15.0773 5.45889 15.0687 5.49854C15.0601 5.5382 15.0436 5.5758 15.0203 5.60917C14.9969 5.64255 14.967 5.67104 14.9324 5.69302C14.8978 5.715 14.8591 5.73002 14.8186 5.73723C14.7781 5.74445 14.7365 5.7437 14.6963 5.73505C14.656 5.72639 14.6179 5.70999 14.5842 5.68679C14.5504 5.66359 14.5216 5.63404 14.4995 5.59985ZM15.0925 6.50494L14.9231 6.24632C14.9006 6.21236 14.8852 6.17435 14.8776 6.13449C14.8701 6.09462 14.8706 6.05369 14.8792 6.01403C14.8878 5.97437 14.9043 5.93678 14.9277 5.9034C14.951 5.87003 14.9809 5.84153 15.0155 5.81956C15.0501 5.79758 15.0888 5.78255 15.1293 5.77534C15.1698 5.76813 15.2114 5.76887 15.2517 5.77753C15.2919 5.78619 15.33 5.80259 15.3638 5.82579C15.3975 5.84899 15.4263 5.87853 15.4485 5.91272L15.6179 6.17133C15.6402 6.20529 15.6555 6.24325 15.6629 6.28304C15.6703 6.32284 15.6697 6.36368 15.661 6.40323C15.6524 6.44278 15.6359 6.48026 15.6126 6.51354C15.5892 6.54682 15.5594 6.57523 15.5249 6.59716C15.4903 6.61909 15.4518 6.6341 15.4113 6.64133C15.3709 6.64856 15.3294 6.64788 15.2893 6.63931C15.2491 6.63075 15.2111 6.61447 15.1773 6.59141C15.1436 6.56836 15.1148 6.53897 15.0925 6.50494ZM16.1085 7.48786C16.074 7.50977 16.0355 7.52477 15.9951 7.53202C15.9547 7.53926 15.9133 7.5386 15.8732 7.53007C15.8331 7.52154 15.795 7.50532 15.7613 7.48232C15.7275 7.45932 15.6987 7.43 15.6765 7.39604L15.5162 7.1514C15.4714 7.08281 15.4561 6.99952 15.4736 6.91982C15.4911 6.84011 15.5401 6.77052 15.6097 6.72632C15.6793 6.68211 15.7639 6.66692 15.8448 6.68408C15.9258 6.70123 15.9965 6.74933 16.0415 6.81781L16.2018 7.06244C16.2467 7.13103 16.2621 7.21439 16.2446 7.29417C16.2272 7.37396 16.1782 7.44362 16.1085 7.48786ZM17.7377 4.40609C17.6426 4.5379 17.5218 4.64981 17.3824 4.73535C17.243 4.82088 17.0878 4.87833 16.9256 4.90438C16.857 4.91556 16.7876 4.92119 16.7181 4.92121C16.4378 4.92065 16.1658 4.82735 15.9458 4.6563C15.7258 4.48524 15.5705 4.24636 15.505 3.978C15.4394 3.70964 15.4674 3.42737 15.5843 3.17653C15.7013 2.92569 15.9004 2.72082 16.1499 2.59482C16.3993 2.46882 16.6844 2.429 16.9596 2.48175C17.2347 2.53451 17.4839 2.67678 17.6671 2.88572C17.8503 3.09465 17.9568 3.35814 17.9696 3.63386C17.9824 3.90959 17.9008 4.18155 17.7377 4.40609Z" fill="#67A92A"/>
</svg>
