<svg width="18" height="17" viewBox="0 0 18 17" fill="none" xmlns="http://www.w3.org/2000/svg">
<path d="M13.3624 11.5479V13.9771C13.3624 14.1843 13.2143 14.3324 13.0071 14.3324H3.05174C2.84458 14.3324 2.69645 14.1843 2.69645 13.9771V4.02174C2.69645 3.81458 2.84458 3.66645 3.05174 3.66645H5.24369C5.36173 3.66645 5.48094 3.60742 5.53996 3.48822C5.95427 2.77764 6.4878 2.12489 7.16946 1.65156C7.85113 1.17705 7.3176 1 6.9623 1H1.06706C0.474511 1 0 1.47451 0 2.06706V15.9329C0 16.5255 0.474511 17 1.06706 17H14.9329C15.5255 17 16 16.5255 16 15.9329V9.59329C16 9.26691 15.6146 9.11878 15.4075 9.35604L13.4516 11.3119C13.3926 11.3709 13.3335 11.4601 13.3335 11.5492L13.3624 11.5479Z" fill="#67A92A"/>
<path d="M17.8634 4.06218L13.9867 0.109417C13.755 -0.126834 13.408 0.0506415 13.408 0.345668V2.26334H10.138C7.8526 2.26334 6 4.15103 6 6.48251V10.643C6 10.9968 6.46343 11.1443 6.63634 10.8204L8.14074 8.3427C8.89352 7.10382 10.2238 6.36626 11.6705 6.36626H13.4361V8.25395C13.4361 8.57895 13.8124 8.72647 14.0148 8.4902L17.8915 4.53744C18.0362 4.38993 18.0362 4.18365 17.8915 4.03613L17.8634 4.06218Z" fill="#67A92A"/>
</svg>
