<svg width="16" height="18" viewBox="0 0 16 18" fill="none" xmlns="http://www.w3.org/2000/svg">
<path d="M13.3333 0H2.66667C1.95942 0 1.28115 0.280952 0.781049 0.781049C0.280952 1.28115 0 1.95942 0 2.66667V15.1111C0 15.8184 0.280952 16.4966 0.781049 16.9967C1.28115 17.4968 1.95942 17.7778 2.66667 17.7778H13.3333C14.0406 17.7778 14.7189 17.4968 15.219 16.9967C15.719 16.4966 16 15.8184 16 15.1111V2.66667C16 1.95942 15.719 1.28115 15.219 0.781049C14.7189 0.280952 14.0406 0 13.3333 0ZM4.44444 3.11111H8C8.23575 3.11111 8.46184 3.20476 8.62854 3.37146C8.79524 3.53816 8.88889 3.76425 8.88889 4C8.88889 4.23575 8.79524 4.46184 8.62854 4.62854C8.46184 4.79524 8.23575 4.88889 8 4.88889H4.44444C4.2087 4.88889 3.9826 4.79524 3.81591 4.62854C3.64921 4.46184 3.55556 4.23575 3.55556 4C3.55556 3.76425 3.64921 3.53816 3.81591 3.37146C3.9826 3.20476 4.2087 3.11111 4.44444 3.11111ZM11.5556 14.6667H4.44444C4.2087 14.6667 3.9826 14.573 3.81591 14.4063C3.64921 14.2396 3.55556 14.0135 3.55556 13.7778C3.55556 13.542 3.64921 13.3159 3.81591 13.1492C3.9826 12.9825 4.2087 12.8889 4.44444 12.8889H11.5556C11.7913 12.8889 12.0174 12.9825 12.1841 13.1492C12.3508 13.3159 12.4444 13.542 12.4444 13.7778C12.4444 14.0135 12.3508 14.2396 12.1841 14.4063C12.0174 14.573 11.7913 14.6667 11.5556 14.6667ZM11.5556 11.4044H4.44444C4.2087 11.4044 3.9826 11.3108 3.81591 11.1441C3.64921 10.9774 3.55556 10.7513 3.55556 10.5156C3.55556 10.2798 3.64921 10.0537 3.81591 9.88702C3.9826 9.72032 4.2087 9.62667 4.44444 9.62667H11.5556C11.7913 9.62667 12.0174 9.72032 12.1841 9.88702C12.3508 10.0537 12.4444 10.2798 12.4444 10.5156C12.4444 10.7513 12.3508 10.9774 12.1841 11.1441C12.0174 11.3108 11.7913 11.4044 11.5556 11.4044ZM11.5556 8.15111H4.44444C4.2087 8.15111 3.9826 8.05746 3.81591 7.89076C3.64921 7.72406 3.55556 7.49797 3.55556 7.26222C3.55556 7.02647 3.64921 6.80038 3.81591 6.63368C3.9826 6.46698 4.2087 6.37333 4.44444 6.37333H11.5556C11.7913 6.37333 12.0174 6.46698 12.1841 6.63368C12.3508 6.80038 12.4444 7.02647 12.4444 7.26222C12.4444 7.49797 12.3508 7.72406 12.1841 7.89076C12.0174 8.05746 11.7913 8.15111 11.5556 8.15111Z" fill="#67A92A"/>
</svg>
